<?xml version="1.0" encoding="UTF-8" standalone="no"?>
<!DOCTYPE svg PUBLIC "-//W3C//DTD SVG 1.1//EN"
 "http://www.w3.org/Graphics/SVG/1.1/DTD/svg11.dtd">
<!-- Generated by graphviz version 2.30.1 (20201013.1554)
 -->
<!-- Title: snakemake_dag Pages: 1 -->
<svg width="670pt" height="338pt"
 viewBox="0.00 0.00 670.00 338.00" xmlns="http://www.w3.org/2000/svg" xmlns:xlink="http://www.w3.org/1999/xlink">
<g id="graph0" class="graph" transform="scale(1 1) rotate(0) translate(4 334)">
<title>snakemake_dag</title>
<polygon fill="white" stroke="white" points="-4,5 -4,-334 667,-334 667,5 -4,5"/>
<!-- 0 -->
<g id="node1" class="node"><title>0</title>
<path fill="none" stroke="#d6d856" stroke-width="2" d="M313,-36C313,-36 283,-36 283,-36 277,-36 271,-30 271,-24 271,-24 271,-12 271,-12 271,-6 277,-0 283,-0 283,-0 313,-0 313,-0 319,-0 325,-6 325,-12 325,-12 325,-24 325,-24 325,-30 319,-36 313,-36"/>
<text text-anchor="middle" x="298" y="-15.5" font-family="sans" font-size="10.00">all</text>
</g>
<!-- 1 -->
<g id="node2" class="node"><title>1</title>
<path fill="none" stroke="#d85656" stroke-width="2" stroke-dasharray="5,2" d="M373.25,-186C373.25,-186 308.75,-186 308.75,-186 302.75,-186 296.75,-180 296.75,-174 296.75,-174 296.75,-162 296.75,-162 296.75,-156 302.75,-150 308.75,-150 308.75,-150 373.25,-150 373.25,-150 379.25,-150 385.25,-156 385.25,-162 385.25,-162 385.25,-174 385.25,-174 385.25,-180 379.25,-186 373.25,-186"/>
<text text-anchor="middle" x="341" y="-165.5" font-family="sans" font-size="10.00">beagle_impute</text>
</g>
<!-- 1&#45;&gt;0 -->
<g id="edge1" class="edge"><title>1&#45;&gt;0</title>
<path fill="none" stroke="grey" stroke-width="2" d="M308.947,-149.88C295.88,-141.055 282.18,-128.974 275,-114 264.47,-92.04 272.975,-64.8452 282.482,-45.1865"/>
<polygon fill="grey" stroke="grey" points="285.648,-46.685 287.15,-36.1972 279.435,-43.4587 285.648,-46.685"/>
</g>
<!-- 7 -->
<g id="node8" class="node"><title>7</title>
<path fill="none" stroke="#d89556" stroke-width="2" d="M518,-113.5C518,-113.5 428,-113.5 428,-113.5 422,-113.5 416,-107.5 416,-101.5 416,-101.5 416,-84.5 416,-84.5 416,-78.5 422,-72.5 428,-72.5 428,-72.5 518,-72.5 518,-72.5 524,-72.5 530,-78.5 530,-84.5 530,-84.5 530,-101.5 530,-101.5 530,-107.5 524,-113.5 518,-113.5"/>
<text text-anchor="middle" x="473" y="-101.5" font-family="sans" font-size="10.00">ImputationAccuracy</text>
<text text-anchor="middle" x="473" y="-90.5" font-family="sans" font-size="10.00">fold: 2</text>
<text text-anchor="middle" x="473" y="-79.5" font-family="sans" font-size="10.00">rep: 1</text>
</g>
<!-- 1&#45;&gt;7 -->
<g id="edge13" class="edge"><title>1&#45;&gt;7</title>
<path fill="none" stroke="grey" stroke-width="2" d="M371.948,-149.885C388.843,-140.541 410.056,-128.81 428.678,-118.511"/>
<polygon fill="grey" stroke="grey" points="430.525,-121.49 437.582,-113.587 427.137,-115.364 430.525,-121.49"/>
</g>
<!-- 8 -->
<g id="node9" class="node"><title>8</title>
<path fill="none" stroke="#d89556" stroke-width="2" d="M650,-113.5C650,-113.5 560,-113.5 560,-113.5 554,-113.5 548,-107.5 548,-101.5 548,-101.5 548,-84.5 548,-84.5 548,-78.5 554,-72.5 560,-72.5 560,-72.5 650,-72.5 650,-72.5 656,-72.5 662,-78.5 662,-84.5 662,-84.5 662,-101.5 662,-101.5 662,-107.5 656,-113.5 650,-113.5"/>
<text text-anchor="middle" x="605" y="-101.5" font-family="sans" font-size="10.00">ImputationAccuracy</text>
<text text-anchor="middle" x="605" y="-90.5" font-family="sans" font-size="10.00">fold: 3</text>
<text text-anchor="middle" x="605" y="-79.5" font-family="sans" font-size="10.00">rep: 1</text>
</g>
<!-- 1&#45;&gt;8 -->
<g id="edge15" class="edge"><title>1&#45;&gt;8</title>
<path fill="none" stroke="grey" stroke-width="2" d="M385.545,-155.521C423.629,-145.607 480.125,-130.664 538.103,-114.219"/>
<polygon fill="grey" stroke="grey" points="539.137,-117.564 547.796,-111.459 537.22,-110.831 539.137,-117.564"/>
</g>
<!-- 9 -->
<g id="node10" class="node"><title>9</title>
<path fill="none" stroke="#d89556" stroke-width="2" d="M216,-113.5C216,-113.5 126,-113.5 126,-113.5 120,-113.5 114,-107.5 114,-101.5 114,-101.5 114,-84.5 114,-84.5 114,-78.5 120,-72.5 126,-72.5 126,-72.5 216,-72.5 216,-72.5 222,-72.5 228,-78.5 228,-84.5 228,-84.5 228,-101.5 228,-101.5 228,-107.5 222,-113.5 216,-113.5"/>
<text text-anchor="middle" x="171" y="-101.5" font-family="sans" font-size="10.00">ImputationAccuracy</text>
<text text-anchor="middle" x="171" y="-90.5" font-family="sans" font-size="10.00">fold: 2</text>
<text text-anchor="middle" x="171" y="-79.5" font-family="sans" font-size="10.00">rep: 2</text>
</g>
<!-- 1&#45;&gt;9 -->
<g id="edge17" class="edge"><title>1&#45;&gt;9</title>
<path fill="none" stroke="grey" stroke-width="2" d="M301.143,-149.885C278.79,-140.286 250.57,-128.168 226.126,-117.672"/>
<polygon fill="grey" stroke="grey" points="227.184,-114.317 216.615,-113.587 224.422,-120.749 227.184,-114.317"/>
</g>
<!-- 10 -->
<g id="node11" class="node"><title>10</title>
<path fill="none" stroke="#d89556" stroke-width="2" d="M386,-113.5C386,-113.5 296,-113.5 296,-113.5 290,-113.5 284,-107.5 284,-101.5 284,-101.5 284,-84.5 284,-84.5 284,-78.5 290,-72.5 296,-72.5 296,-72.5 386,-72.5 386,-72.5 392,-72.5 398,-78.5 398,-84.5 398,-84.5 398,-101.5 398,-101.5 398,-107.5 392,-113.5 386,-113.5"/>
<text text-anchor="middle" x="341" y="-101.5" font-family="sans" font-size="10.00">ImputationAccuracy</text>
<text text-anchor="middle" x="341" y="-90.5" font-family="sans" font-size="10.00">fold: 3</text>
<text text-anchor="middle" x="341" y="-79.5" font-family="sans" font-size="10.00">rep: 2</text>
</g>
<!-- 1&#45;&gt;10 -->
<g id="edge19" class="edge"><title>1&#45;&gt;10</title>
<path fill="none" stroke="grey" stroke-width="2" d="M341,-149.7C341,-142.026 341,-132.77 341,-124.026"/>
<polygon fill="grey" stroke="grey" points="344.5,-123.755 341,-113.755 337.5,-123.755 344.5,-123.755"/>
</g>
<!-- 2 -->
<g id="node3" class="node"><title>2</title>
<path fill="none" stroke="#59d856" stroke-width="2" stroke-dasharray="5,2" d="M379.25,-330C379.25,-330 300.75,-330 300.75,-330 294.75,-330 288.75,-324 288.75,-318 288.75,-318 288.75,-306 288.75,-306 288.75,-300 294.75,-294 300.75,-294 300.75,-294 379.25,-294 379.25,-294 385.25,-294 391.25,-300 391.25,-306 391.25,-306 391.25,-318 391.25,-318 391.25,-324 385.25,-330 379.25,-330"/>
<text text-anchor="middle" x="340" y="-309.5" font-family="sans" font-size="10.00">beagle_phase_ref</text>
</g>
<!-- 2&#45;&gt;1 -->
<g id="edge7" class="edge"><title>2&#45;&gt;1</title>
<path fill="none" stroke="grey" stroke-width="2" d="M340.121,-293.871C340.291,-269.67 340.604,-225.211 340.807,-196.393"/>
<polygon fill="grey" stroke="grey" points="344.308,-196.214 340.879,-186.189 337.309,-196.164 344.308,-196.214"/>
</g>
<!-- 3 -->
<g id="node4" class="node"><title>3</title>
<path fill="none" stroke="#56d8d8" stroke-width="2" stroke-dasharray="5,2" d="M457.25,-258C457.25,-258 380.75,-258 380.75,-258 374.75,-258 368.75,-252 368.75,-246 368.75,-246 368.75,-234 368.75,-234 368.75,-228 374.75,-222 380.75,-222 380.75,-222 457.25,-222 457.25,-222 463.25,-222 469.25,-228 469.25,-234 469.25,-234 469.25,-246 469.25,-246 469.25,-252 463.25,-258 457.25,-258"/>
<text text-anchor="middle" x="419" y="-237.5" font-family="sans" font-size="10.00">check_preimpute</text>
</g>
<!-- 2&#45;&gt;3 -->
<g id="edge9" class="edge"><title>2&#45;&gt;3</title>
<path fill="none" stroke="grey" stroke-width="2" d="M359.528,-293.697C369.382,-284.965 381.486,-274.24 392.196,-264.75"/>
<polygon fill="grey" stroke="grey" points="394.533,-267.356 399.697,-258.104 389.891,-262.117 394.533,-267.356"/>
</g>
<!-- 3&#45;&gt;1 -->
<g id="edge8" class="edge"><title>3&#45;&gt;1</title>
<path fill="none" stroke="grey" stroke-width="2" d="M399.719,-221.697C390.085,-213.05 378.271,-202.449 367.773,-193.027"/>
<polygon fill="grey" stroke="grey" points="369.839,-190.179 360.059,-186.104 365.164,-195.388 369.839,-190.179"/>
</g>
<!-- 3&#45;&gt;7 -->
<g id="edge12" class="edge"><title>3&#45;&gt;7</title>
<path fill="none" stroke="grey" stroke-width="2" d="M425.407,-221.797C434.443,-197.534 451.055,-152.926 462.066,-123.361"/>
<polygon fill="grey" stroke="grey" points="465.356,-124.555 465.566,-113.962 458.796,-122.112 465.356,-124.555"/>
</g>
<!-- 3&#45;&gt;8 -->
<g id="edge14" class="edge"><title>3&#45;&gt;8</title>
<path fill="none" stroke="grey" stroke-width="2" d="M441.067,-221.797C473.363,-196.62 533.758,-149.538 571.537,-120.087"/>
<polygon fill="grey" stroke="grey" points="573.964,-122.633 579.699,-113.724 569.66,-117.112 573.964,-122.633"/>
</g>
<!-- 3&#45;&gt;9 -->
<g id="edge16" class="edge"><title>3&#45;&gt;9</title>
<path fill="none" stroke="grey" stroke-width="2" d="M368.517,-222.62C343.231,-213.458 312.626,-200.883 287,-186 254.79,-167.293 221.876,-140.285 199.376,-120.368"/>
<polygon fill="grey" stroke="grey" points="201.653,-117.71 191.87,-113.644 196.983,-122.924 201.653,-117.71"/>
</g>
<!-- 3&#45;&gt;10 -->
<g id="edge18" class="edge"><title>3&#45;&gt;10</title>
<path fill="none" stroke="grey" stroke-width="2" d="M416.721,-221.99C413.672,-203.349 407.063,-173.035 394,-150 388.025,-139.463 379.651,-129.378 371.322,-120.742"/>
<polygon fill="grey" stroke="grey" points="373.638,-118.11 364.075,-113.551 368.708,-123.079 373.638,-118.11"/>
</g>
<!-- 4 -->
<g id="node5" class="node"><title>4</title>
<path fill="none" stroke="#56d89a" stroke-width="2" stroke-dasharray="5,2" d="M496.25,-330C496.25,-330 421.75,-330 421.75,-330 415.75,-330 409.75,-324 409.75,-318 409.75,-318 409.75,-306 409.75,-306 409.75,-300 415.75,-294 421.75,-294 421.75,-294 496.25,-294 496.25,-294 502.25,-294 508.25,-300 508.25,-306 508.25,-306 508.25,-318 508.25,-318 508.25,-324 502.25,-330 496.25,-330"/>
<text text-anchor="middle" x="459" y="-309.5" font-family="sans" font-size="10.00">beagle_phase_gt</text>
</g>
<!-- 4&#45;&gt;3 -->
<g id="edge10" class="edge"><title>4&#45;&gt;3</title>
<path fill="none" stroke="grey" stroke-width="2" d="M449.112,-293.697C444.511,-285.644 438.94,-275.894 433.847,-266.982"/>
<polygon fill="grey" stroke="grey" points="436.774,-265.05 428.774,-258.104 430.696,-268.523 436.774,-265.05"/>
</g>
<!-- 5 -->
<g id="node6" class="node"><title>5</title>
<path fill="none" stroke="#97d856" stroke-width="2" stroke-dasharray="5,2" d="M84,-111C84,-111 12,-111 12,-111 6,-111 0,-105 0,-99 0,-99 0,-87 0,-87 0,-81 6,-75 12,-75 12,-75 84,-75 84,-75 90,-75 96,-81 96,-87 96,-87 96,-99 96,-99 96,-105 90,-111 84,-111"/>
<text text-anchor="middle" x="48" y="-90.5" font-family="sans" font-size="10.00">bcftools_liftover</text>
</g>
<!-- 5&#45;&gt;0 -->
<g id="edge2" class="edge"><title>5&#45;&gt;0</title>
<path fill="none" stroke="grey" stroke-width="2" d="M95.8136,-74.9526C98.9148,-73.9308 101.997,-72.938 105,-72 158.89,-55.1684 222.12,-38.3525 261.125,-28.3126"/>
<polygon fill="grey" stroke="grey" points="262.159,-31.6608 270.977,-25.7882 260.421,-24.8798 262.159,-31.6608"/>
</g>
<!-- 6 -->
<g id="node7" class="node"><title>6</title>
<path fill="none" stroke="#569ad8" stroke-width="2" stroke-dasharray="5,2" d="M74,-186C74,-186 22,-186 22,-186 16,-186 10,-180 10,-174 10,-174 10,-162 10,-162 10,-156 16,-150 22,-150 22,-150 74,-150 74,-150 80,-150 86,-156 86,-162 86,-162 86,-174 86,-174 86,-180 80,-186 74,-186"/>
<text text-anchor="middle" x="48" y="-165.5" font-family="sans" font-size="10.00">make_chain</text>
</g>
<!-- 6&#45;&gt;5 -->
<g id="edge11" class="edge"><title>6&#45;&gt;5</title>
<path fill="none" stroke="grey" stroke-width="2" d="M48,-149.7C48,-141.245 48,-130.869 48,-121.373"/>
<polygon fill="grey" stroke="grey" points="51.5001,-121.176 48,-111.176 44.5001,-121.176 51.5001,-121.176"/>
</g>
<!-- 7&#45;&gt;0 -->
<g id="edge3" class="edge"><title>7&#45;&gt;0</title>
<path fill="none" stroke="grey" stroke-width="2" d="M426.103,-72.4373C397.339,-60.4384 361.052,-45.3018 334.449,-34.2043"/>
<polygon fill="grey" stroke="grey" points="335.694,-30.9315 325.117,-30.3118 332.999,-37.392 335.694,-30.9315"/>
</g>
<!-- 8&#45;&gt;0 -->
<g id="edge4" class="edge"><title>8&#45;&gt;0</title>
<path fill="none" stroke="grey" stroke-width="2" d="M547.84,-74.3817C544.856,-73.5552 541.896,-72.756 539,-72 467.365,-53.2995 382.618,-35.694 335.108,-26.2274"/>
<polygon fill="grey" stroke="grey" points="335.761,-22.7887 325.271,-24.2777 334.4,-29.6552 335.761,-22.7887"/>
</g>
<!-- 9&#45;&gt;0 -->
<g id="edge5" class="edge"><title>9&#45;&gt;0</title>
<path fill="none" stroke="grey" stroke-width="2" d="M205.034,-72.4373C222.553,-62.3673 243.917,-50.0873 261.745,-39.8395"/>
<polygon fill="grey" stroke="grey" points="263.781,-42.7063 270.707,-34.6883 260.293,-36.6374 263.781,-42.7063"/>
</g>
<!-- 10&#45;&gt;0 -->
<g id="edge6" class="edge"><title>10&#45;&gt;0</title>
<path fill="none" stroke="grey" stroke-width="2" d="M329.477,-72.4373C324.476,-63.9484 318.551,-53.889 313.198,-44.8005"/>
<polygon fill="grey" stroke="grey" points="316.181,-42.9696 308.09,-36.1297 310.15,-46.5224 316.181,-42.9696"/>
</g>
</g>
</svg>
