<?xml version="1.0" encoding="UTF-8" standalone="no"?>
<!DOCTYPE svg PUBLIC "-//W3C//DTD SVG 1.1//EN"
 "http://www.w3.org/Graphics/SVG/1.1/DTD/svg11.dtd">
<!-- Generated by graphviz version 2.30.1 (20201013.1554)
 -->
<!-- Title: snakemake_dag Pages: 1 -->
<svg width="309pt" height="332pt"
 viewBox="0.00 0.00 309.00 332.00" xmlns="http://www.w3.org/2000/svg" xmlns:xlink="http://www.w3.org/1999/xlink">
<g id="graph0" class="graph" transform="scale(1 1) rotate(0) translate(4 328)">
<title>snakemake_dag</title>
<polygon fill="white" stroke="white" points="-4,5 -4,-328 306,-328 306,5 -4,5"/>
<!-- 0 -->
<g id="node1" class="node"><title>0</title>
<path fill="none" stroke="#569ad8" stroke-width="2" d="M145,-36C145,-36 115,-36 115,-36 109,-36 103,-30 103,-24 103,-24 103,-12 103,-12 103,-6 109,-0 115,-0 115,-0 145,-0 145,-0 151,-0 157,-6 157,-12 157,-12 157,-24 157,-24 157,-30 151,-36 145,-36"/>
<text text-anchor="middle" x="130" y="-15.5" font-family="sans" font-size="10.00">all</text>
</g>
<!-- 1 -->
<g id="node2" class="node"><title>1</title>
<path fill="none" stroke="#97d856" stroke-width="2" d="M86.25,-180C86.25,-180 21.75,-180 21.75,-180 15.75,-180 9.75,-174 9.75,-168 9.75,-168 9.75,-156 9.75,-156 9.75,-150 15.75,-144 21.75,-144 21.75,-144 86.25,-144 86.25,-144 92.25,-144 98.25,-150 98.25,-156 98.25,-156 98.25,-168 98.25,-168 98.25,-174 92.25,-180 86.25,-180"/>
<text text-anchor="middle" x="54" y="-159.5" font-family="sans" font-size="10.00">beagle_impute</text>
</g>
<!-- 1&#45;&gt;0 -->
<g id="edge3" class="edge"><title>1&#45;&gt;0</title>
<path fill="none" stroke="grey" stroke-width="2" d="M52.2039,-143.778C51.0526,-124.952 51.6316,-94.4769 64,-72 71.1262,-59.0496 82.8416,-48.0937 94.4398,-39.5644"/>
<polygon fill="grey" stroke="grey" points="96.5603,-42.3535 102.797,-33.7887 92.5805,-36.5948 96.5603,-42.3535"/>
</g>
<!-- 7 -->
<g id="node8" class="node"><title>7</title>
<path fill="none" stroke="#56d8d8" stroke-width="2" d="M175,-108C175,-108 85,-108 85,-108 79,-108 73,-102 73,-96 73,-96 73,-84 73,-84 73,-78 79,-72 85,-72 85,-72 175,-72 175,-72 181,-72 187,-78 187,-84 187,-84 187,-96 187,-96 187,-102 181,-108 175,-108"/>
<text text-anchor="middle" x="130" y="-87.5" font-family="sans" font-size="10.00">ImputationAccuracy</text>
</g>
<!-- 1&#45;&gt;7 -->
<g id="edge10" class="edge"><title>1&#45;&gt;7</title>
<path fill="none" stroke="grey" stroke-width="2" d="M72.7865,-143.697C82.174,-135.05 93.6844,-124.449 103.913,-115.027"/>
<polygon fill="grey" stroke="grey" points="106.445,-117.454 111.43,-108.104 101.703,-112.305 106.445,-117.454"/>
</g>
<!-- 2 -->
<g id="node3" class="node"><title>2</title>
<path fill="none" stroke="#56d89a" stroke-width="2" d="M90.25,-324C90.25,-324 11.75,-324 11.75,-324 5.75,-324 -0.25,-318 -0.25,-312 -0.25,-312 -0.25,-300 -0.25,-300 -0.25,-294 5.75,-288 11.75,-288 11.75,-288 90.25,-288 90.25,-288 96.25,-288 102.25,-294 102.25,-300 102.25,-300 102.25,-312 102.25,-312 102.25,-318 96.25,-324 90.25,-324"/>
<text text-anchor="middle" x="51" y="-303.5" font-family="sans" font-size="10.00">beagle_phase_ref</text>
</g>
<!-- 2&#45;&gt;1 -->
<g id="edge5" class="edge"><title>2&#45;&gt;1</title>
<path fill="none" stroke="grey" stroke-width="2" d="M51.3619,-287.871C51.8732,-263.67 52.8124,-219.211 53.4213,-190.393"/>
<polygon fill="grey" stroke="grey" points="56.9247,-190.261 53.6368,-180.189 49.9263,-190.113 56.9247,-190.261"/>
</g>
<!-- 3 -->
<g id="node4" class="node"><title>3</title>
<path fill="none" stroke="#d85656" stroke-width="2" d="M168.25,-252C168.25,-252 91.75,-252 91.75,-252 85.75,-252 79.75,-246 79.75,-240 79.75,-240 79.75,-228 79.75,-228 79.75,-222 85.75,-216 91.75,-216 91.75,-216 168.25,-216 168.25,-216 174.25,-216 180.25,-222 180.25,-228 180.25,-228 180.25,-240 180.25,-240 180.25,-246 174.25,-252 168.25,-252"/>
<text text-anchor="middle" x="130" y="-231.5" font-family="sans" font-size="10.00">check_preimpute</text>
</g>
<!-- 2&#45;&gt;3 -->
<g id="edge7" class="edge"><title>2&#45;&gt;3</title>
<path fill="none" stroke="grey" stroke-width="2" d="M70.5281,-287.697C80.3818,-278.965 92.4857,-268.24 103.196,-258.75"/>
<polygon fill="grey" stroke="grey" points="105.533,-261.356 110.697,-252.104 100.891,-256.117 105.533,-261.356"/>
</g>
<!-- 3&#45;&gt;1 -->
<g id="edge4" class="edge"><title>3&#45;&gt;1</title>
<path fill="none" stroke="grey" stroke-width="2" d="M111.213,-215.697C101.826,-207.05 90.3156,-196.449 80.0865,-187.027"/>
<polygon fill="grey" stroke="grey" points="82.2971,-184.305 72.5704,-180.104 77.5547,-189.454 82.2971,-184.305"/>
</g>
<!-- 3&#45;&gt;7 -->
<g id="edge9" class="edge"><title>3&#45;&gt;7</title>
<path fill="none" stroke="grey" stroke-width="2" d="M130,-215.871C130,-191.67 130,-147.211 130,-118.393"/>
<polygon fill="grey" stroke="grey" points="133.5,-118.189 130,-108.189 126.5,-118.189 133.5,-118.189"/>
</g>
<!-- 4 -->
<g id="node5" class="node"><title>4</title>
<path fill="none" stroke="#59d856" stroke-width="2" d="M207.25,-324C207.25,-324 132.75,-324 132.75,-324 126.75,-324 120.75,-318 120.75,-312 120.75,-312 120.75,-300 120.75,-300 120.75,-294 126.75,-288 132.75,-288 132.75,-288 207.25,-288 207.25,-288 213.25,-288 219.25,-294 219.25,-300 219.25,-300 219.25,-312 219.25,-312 219.25,-318 213.25,-324 207.25,-324"/>
<text text-anchor="middle" x="170" y="-303.5" font-family="sans" font-size="10.00">beagle_phase_gt</text>
</g>
<!-- 4&#45;&gt;3 -->
<g id="edge6" class="edge"><title>4&#45;&gt;3</title>
<path fill="none" stroke="grey" stroke-width="2" d="M160.112,-287.697C155.511,-279.644 149.94,-269.894 144.847,-260.982"/>
<polygon fill="grey" stroke="grey" points="147.774,-259.05 139.774,-252.104 141.696,-262.523 147.774,-259.05"/>
</g>
<!-- 5 -->
<g id="node6" class="node"><title>5</title>
<path fill="none" stroke="#d6d856" stroke-width="2" d="M289,-108C289,-108 217,-108 217,-108 211,-108 205,-102 205,-96 205,-96 205,-84 205,-84 205,-78 211,-72 217,-72 217,-72 289,-72 289,-72 295,-72 301,-78 301,-84 301,-84 301,-96 301,-96 301,-102 295,-108 289,-108"/>
<text text-anchor="middle" x="253" y="-87.5" font-family="sans" font-size="10.00">bcftools_liftover</text>
</g>
<!-- 5&#45;&gt;0 -->
<g id="edge2" class="edge"><title>5&#45;&gt;0</title>
<path fill="none" stroke="grey" stroke-width="2" d="M222.911,-71.8761C205.832,-62.1563 184.335,-49.9222 166.321,-39.6706"/>
<polygon fill="grey" stroke="grey" points="167.683,-36.4185 157.261,-34.5142 164.221,-42.5023 167.683,-36.4185"/>
</g>
<!-- 6 -->
<g id="node7" class="node"><title>6</title>
<path fill="none" stroke="#d89556" stroke-width="2" d="M279,-180C279,-180 227,-180 227,-180 221,-180 215,-174 215,-168 215,-168 215,-156 215,-156 215,-150 221,-144 227,-144 227,-144 279,-144 279,-144 285,-144 291,-150 291,-156 291,-156 291,-168 291,-168 291,-174 285,-180 279,-180"/>
<text text-anchor="middle" x="253" y="-159.5" font-family="sans" font-size="10.00">make_chain</text>
</g>
<!-- 6&#45;&gt;5 -->
<g id="edge8" class="edge"><title>6&#45;&gt;5</title>
<path fill="none" stroke="grey" stroke-width="2" d="M253,-143.697C253,-135.983 253,-126.712 253,-118.112"/>
<polygon fill="grey" stroke="grey" points="256.5,-118.104 253,-108.104 249.5,-118.104 256.5,-118.104"/>
</g>
<!-- 7&#45;&gt;0 -->
<g id="edge1" class="edge"><title>7&#45;&gt;0</title>
<path fill="none" stroke="grey" stroke-width="2" d="M130,-71.6966C130,-63.9827 130,-54.7125 130,-46.1124"/>
<polygon fill="grey" stroke="grey" points="133.5,-46.1043 130,-36.1043 126.5,-46.1044 133.5,-46.1043"/>
</g>
</g>
</svg>
